<?xml version="1.0" standalone="no"?><!-- Generator: Gravit.io --><svg xmlns="http://www.w3.org/2000/svg" xmlns:xlink="http://www.w3.org/1999/xlink" style="isolation:isolate" viewBox="532 478 939 126" width="939" height="126"><path d="M 553.42 478 L 1449.58 478 C 1461.402 478 1471 487.598 1471 499.42 L 1471 582.58 C 1471 594.402 1461.402 604 1449.58 604 L 553.42 604 C 541.598 604 532 594.402 532 582.58 L 532 499.42 C 532 487.598 541.598 478 553.42 478 Z" style="stroke:none;fill:#111111;stroke-miterlimit:10;"/><g id="Group"><g transform="matrix(1,0,0,1,570.75,513.5)"><text transform="matrix(1,0,0,1,0,14.854)" style="font-family:&quot;Consolas&quot;;font-weight:400;font-size:20px;font-style:normal;fill:#ff9214;stroke:none;">before </text><text transform="matrix(1,0,0,1,76.973,14.854)" style="font-family:&quot;Consolas&quot;;font-weight:400;font-size:20px;font-style:normal;fill:#e8e8e8;stroke:none;">list = [FE, 6A, FF, 6C, 1F, A6, BB, D4, 58, 1D, 2A, 55, 42, E1, FA, FC]</text></g><g transform="matrix(1,0,0,1,570.75,548.5)"><text transform="matrix(1,0,0,1,0,14.854)" style="font-family:&quot;Consolas&quot;;font-weight:400;font-size:20px;font-style:normal;fill:#6241ce;stroke:none;">after  </text><text transform="matrix(1,0,0,1,76.973,14.854)" style="font-family:&quot;Consolas&quot;;font-weight:400;font-size:20px;font-style:normal;fill:#e8e8e8;stroke:none;">list = [FF, FE, FC, FA, E1, D4, BB, A6, 6C, 6A, 58, 55, 42, 2A, 1F, 1D]</text></g></g></svg>